<svg width="321" height="64" viewBox="0 0 321 64" fill="none" xmlns="http://www.w3.org/2000/svg">
<rect width="64" height="64" rx="32" fill="#FFAE34"/>
<rect width="64" height="64" rx="32" fill="url(#paint0_linear_12_103)" fill-opacity="0.15"/>
<path d="M100.938 35.776V35.732C100.938 33.664 99.838 32.63 98.056 31.948C99.156 31.332 100.08 30.364 100.08 28.626V28.582C100.08 26.162 98.144 24.6 94.998 24.6H87.848V40H95.174C98.65 40 100.938 38.592 100.938 35.776ZM96.714 29.198C96.714 30.342 95.768 30.826 94.272 30.826H91.148V27.57H94.492C95.922 27.57 96.714 28.142 96.714 29.154V29.198ZM97.572 35.358C97.572 36.502 96.67 37.03 95.174 37.03H91.148V33.642H95.064C96.802 33.642 97.572 34.28 97.572 35.314V35.358ZM107.267 40V24.6H103.879V40H107.267ZM122.776 27.724V24.6H110.016V27.724H114.702V40H118.09V27.724H122.776ZM138.245 37.514L136.089 35.336C134.879 36.436 133.801 37.14 132.041 37.14C129.401 37.14 127.575 34.94 127.575 32.3V32.256C127.575 29.616 129.445 27.46 132.041 27.46C133.581 27.46 134.791 28.12 135.979 29.198L138.135 26.712C136.705 25.304 134.967 24.336 132.063 24.336C127.333 24.336 124.033 27.922 124.033 32.3V32.344C124.033 36.766 127.399 40.264 131.931 40.264C134.901 40.264 136.661 39.208 138.245 37.514ZM156.214 32.3V32.256C156.214 27.878 152.804 24.336 148.052 24.336C143.3 24.336 139.846 27.922 139.846 32.3V32.344C139.846 36.722 143.256 40.264 148.008 40.264C152.76 40.264 156.214 36.678 156.214 32.3ZM152.672 32.344C152.672 34.984 150.78 37.14 148.052 37.14C145.324 37.14 143.388 34.94 143.388 32.3V32.256C143.388 29.616 145.28 27.46 148.008 27.46C150.736 27.46 152.672 29.66 152.672 32.3V32.344ZM162.761 40V24.6H159.373V40H162.761ZM180.294 40V24.6H176.95V34.082L169.734 24.6H166.61V40H169.954V30.21L177.412 40H180.294ZM194.128 40V24.6H190.74V40H194.128ZM211.661 40V24.6H208.317V34.082L201.101 24.6H197.977V40H201.321V30.21L208.779 40H211.661ZM228.888 37.514L226.732 35.336C225.522 36.436 224.444 37.14 222.684 37.14C220.044 37.14 218.218 34.94 218.218 32.3V32.256C218.218 29.616 220.088 27.46 222.684 27.46C224.224 27.46 225.434 28.12 226.622 29.198L228.778 26.712C227.348 25.304 225.61 24.336 222.706 24.336C217.976 24.336 214.676 27.922 214.676 32.3V32.344C214.676 36.766 218.042 40.264 222.574 40.264C225.544 40.264 227.304 39.208 228.888 37.514Z" fill="#333333"/>
<path d="M41.497 30.9058C43.5399 29.8521 44.8181 27.9964 44.5195 24.905C44.1174 20.6802 40.5145 19.2636 35.9662 18.8601L35.9653 13H32.4413L32.4403 18.706C31.5132 18.706 30.568 18.7244 29.6271 18.7436L29.6263 13.0008L26.1055 13.0004L26.1048 18.8591C25.3418 18.8749 24.5924 18.8899 23.8607 18.8899V18.8726L19 18.8706L19.0007 22.6797C19.0007 22.6797 21.6031 22.6301 21.5602 22.6782C22.9871 22.6792 23.453 23.5181 23.587 24.2422L23.588 30.9181V40.2956C23.5252 40.75 23.2609 41.4761 22.2632 41.4774C22.3086 41.5179 19.6997 41.477 19.6997 41.477L19.0007 45.7364H23.5859C24.4402 45.7374 25.2797 45.7509 26.1033 45.7576L26.1064 51.684L29.6263 51.685L29.6253 45.8207C30.5937 45.8407 31.5285 45.8493 32.4416 45.8481L32.4406 51.685H35.9645L35.9664 45.7684C41.8899 45.424 46.0368 43.9132 46.5524 38.2812C46.968 33.7469 44.8601 31.7229 41.497 30.9058ZM29.7113 22.9368C31.6988 22.9368 37.9494 22.296 37.9503 26.4994C37.9494 30.5293 31.7008 30.0586 29.7113 30.0586V22.9368ZM29.7098 41.5063L29.7113 33.6539C32.0992 33.6532 39.589 32.9582 39.59 37.5783C39.591 42.009 32.0992 41.5046 29.7098 41.5063Z" fill="#333333"/>
<defs>
<linearGradient id="paint0_linear_12_103" x1="64" y1="-4.72934e-06" x2="-12.5264" y2="30.8632" gradientUnits="userSpaceOnUse">
<stop stop-color="white"/>
<stop offset="1" stop-color="white" stop-opacity="0"/>
</linearGradient>
</defs>
</svg>
