<svg width="321" height="64" viewBox="0 0 321 64" fill="none" xmlns="http://www.w3.org/2000/svg">
<rect width="64" height="64" rx="32" fill="#8B58F9"/>
<rect width="64" height="64" rx="32" fill="url(#paint0_linear_12_105)" fill-opacity="0.15"/>
<path d="M100.938 35.776V35.732C100.938 33.664 99.838 32.63 98.056 31.948C99.156 31.332 100.08 30.364 100.08 28.626V28.582C100.08 26.162 98.144 24.6 94.998 24.6H87.848V40H95.174C98.65 40 100.938 38.592 100.938 35.776ZM96.714 29.198C96.714 30.342 95.768 30.826 94.272 30.826H91.148V27.57H94.492C95.922 27.57 96.714 28.142 96.714 29.154V29.198ZM97.572 35.358C97.572 36.502 96.67 37.03 95.174 37.03H91.148V33.642H95.064C96.802 33.642 97.572 34.28 97.572 35.314V35.358ZM114.791 40V36.92H107.113V24.6H103.725V40H114.791ZM132.151 32.3V32.256C132.151 27.878 128.741 24.336 123.989 24.336C119.237 24.336 115.783 27.922 115.783 32.3V32.344C115.783 36.722 119.193 40.264 123.945 40.264C128.697 40.264 132.151 36.678 132.151 32.3ZM128.609 32.344C128.609 34.984 126.717 37.14 123.989 37.14C121.261 37.14 119.325 34.94 119.325 32.3V32.256C119.325 29.616 121.217 27.46 123.945 27.46C126.673 27.46 128.609 29.66 128.609 32.3V32.344ZM148.687 37.514L146.531 35.336C145.321 36.436 144.243 37.14 142.483 37.14C139.843 37.14 138.017 34.94 138.017 32.3V32.256C138.017 29.616 139.887 27.46 142.483 27.46C144.023 27.46 145.233 28.12 146.421 29.198L148.577 26.712C147.147 25.304 145.409 24.336 142.505 24.336C137.775 24.336 134.475 27.922 134.475 32.3V32.344C134.475 36.766 137.841 40.264 142.373 40.264C145.343 40.264 147.103 39.208 148.687 37.514ZM165.413 40L158.857 31.134L165.127 24.6H161.035L154.787 31.332V24.6H151.399V40H154.787V35.292L156.569 33.444L161.343 40H165.413ZM187.595 37.514L185.439 35.336C184.229 36.436 183.151 37.14 181.391 37.14C178.751 37.14 176.925 34.94 176.925 32.3V32.256C176.925 29.616 178.795 27.46 181.391 27.46C182.931 27.46 184.141 28.12 185.329 29.198L187.485 26.712C186.055 25.304 184.317 24.336 181.413 24.336C176.683 24.336 173.383 27.922 173.383 32.3V32.344C173.383 36.766 176.749 40.264 181.281 40.264C184.251 40.264 186.011 39.208 187.595 37.514ZM203.331 40V24.6H199.943V30.694H193.695V24.6H190.307V40H193.695V33.818H199.943V40H203.331ZM222.026 40L215.426 24.49H212.302L205.702 40H209.156L210.564 36.546H217.076L218.484 40H222.026ZM215.866 33.554H211.774L213.82 28.56L215.866 33.554ZM227.945 40V24.6H224.557V40H227.945ZM245.477 40V24.6H242.133V34.082L234.917 24.6H231.793V40H235.137V30.21L242.595 40H245.477ZM259.312 40V24.6H255.924V40H259.312ZM276.845 40V24.6H273.501V34.082L266.285 24.6H263.161V40H266.505V30.21L273.963 40H276.845ZM294.071 37.514L291.915 35.336C290.705 36.436 289.627 37.14 287.867 37.14C285.227 37.14 283.401 34.94 283.401 32.3V32.256C283.401 29.616 285.271 27.46 287.867 27.46C289.407 27.46 290.617 28.12 291.805 29.198L293.961 26.712C292.531 25.304 290.793 24.336 287.889 24.336C283.159 24.336 279.859 27.922 279.859 32.3V32.344C279.859 36.766 283.225 40.264 287.757 40.264C290.727 40.264 292.487 39.208 294.071 37.514Z" fill="#333333"/>
<path d="M45.3113 18.6979C43.5678 16.9552 41.4272 15.9972 39.284 16C37.2396 16.0029 35.2983 16.8586 33.6985 18.4787L27.719 24.4935C26.0468 26.1738 25.1993 28.1915 25.2685 30.3343C25.3409 32.3969 26.3003 34.4512 27.9689 36.1195C28.9055 37.0554 30.423 37.0554 31.3589 36.1195C32.2955 35.1825 32.2955 33.664 31.3589 32.7288C30.5513 31.9209 30.0899 31.0117 30.0607 30.1728C30.035 29.3788 30.3909 28.6058 31.1186 27.8742L37.0984 21.8597C37.1023 21.8561 37.1059 21.8526 37.1091 21.8487C37.8069 21.1509 38.5417 20.7965 39.2904 20.7951C40.1515 20.794 41.0852 21.2532 41.9217 22.09C42.8715 23.0381 44.1654 24.9299 42.1634 26.9415L39.2248 29.8897C39.1079 30.0073 39.0715 30.223 39.1392 30.3742C39.6181 31.4513 39.8894 32.5819 39.9268 33.7189C39.9429 34.1888 39.9201 34.6527 39.8605 35.1094C39.775 35.7669 40.0006 35.903 40.4681 35.4338L45.5605 30.3246C48.9038 26.9653 48.8011 22.1835 45.3113 18.6979Z" fill="white"/>
<path d="M36.0252 27.9669C35.0883 27.0328 33.5726 27.0345 32.6374 27.9694C31.7001 28.9099 31.7022 30.4277 32.6399 31.3629C33.4485 32.1683 33.9081 33.0757 33.9366 33.9211C33.9637 34.7108 33.6086 35.4831 32.8802 36.2154L26.9018 42.2274C26.8982 42.232 26.8947 42.2348 26.8911 42.2384C26.1923 42.9372 25.4575 43.292 24.7077 43.2938C23.8459 43.2948 22.9107 42.836 22.0768 42.0024C21.1273 41.0526 19.8341 39.1576 21.8332 37.1474L24.7747 34.1985C24.8916 34.0815 24.9276 33.8651 24.8603 33.715C24.3821 32.6393 24.1104 31.5112 24.0709 30.3771C24.0555 29.9054 24.0791 29.4394 24.1393 28.9812C24.226 28.3249 23.9996 28.1872 23.5321 28.6557L18.4365 33.7628C15.0975 37.1192 15.1995 41.9011 18.6861 45.3927C20.431 47.1351 22.572 48.0913 24.7166 48.0885C26.7524 48.0849 28.6763 47.2342 30.2821 45.6291C30.2889 45.622 30.2957 45.6152 30.3025 45.6084L36.2816 39.595C37.9566 37.9093 38.8027 35.8895 38.7285 33.7589C38.6608 31.6934 37.6996 29.6366 36.0252 27.9669Z" fill="white"/>
<defs>
<linearGradient id="paint0_linear_12_105" x1="63.2461" y1="1.46059" x2="-12.8297" y2="31.4021" gradientUnits="userSpaceOnUse">
<stop/>
<stop offset="1" stop-opacity="0"/>
</linearGradient>
</defs>
</svg>
