<svg width="321" height="64" viewBox="0 0 321 64" fill="none" xmlns="http://www.w3.org/2000/svg">
<rect width="64" height="64" rx="32" fill="#F33355"/>
<rect width="64" height="64" rx="32" fill="url(#paint0_linear_12_106)" fill-opacity="0.16"/>
<path fill-rule="evenodd" clip-rule="evenodd" d="M32 49C41.3888 49 49 41.3888 49 32C49 30.0145 48.6596 28.1084 48.034 26.3371C49.9119 23.4372 51 19.9937 51 16.3C51 15.6315 50.0585 15.5682 49.8231 16.1938C48.9585 18.4917 47.6482 20.5767 45.9956 22.3473C42.9283 17.9084 37.8038 15 32 15C26.1962 15 21.0717 17.9084 18.0044 22.3473C16.3518 20.5767 15.0415 18.4917 14.1769 16.1938C13.9415 15.5682 13 15.6315 13 16.3C13 19.9937 14.0881 23.4372 15.966 26.3371C15.3404 28.1084 15 30.0145 15 32C15 41.3888 22.6112 49 32 49ZM26.5138 28.1501C26.9809 27.9801 27.502 28.1791 27.7369 28.6172L30.3917 33.5671C30.8293 34.3831 30.0187 35.3043 29.1537 34.974L21.2205 31.9444C20.3556 31.6141 20.3653 30.3871 21.2354 30.0705L26.5138 28.1501ZM38.2875 28.15C37.8203 27.98 37.2993 28.179 37.0643 28.6171L34.4095 33.567C33.9718 34.3829 34.7825 35.3041 35.6475 34.9738L43.5807 31.9444C44.4456 31.6141 44.4359 30.3871 43.5658 30.0705L38.2875 28.15Z" fill="white"/>
<path d="M99.574 40V36.986H91.214V33.752H98.474V30.738H91.214V27.614H99.464V24.6H87.848V40H99.574ZM116.71 24.6H113.058L109.032 35.446L105.006 24.6H101.266L107.492 40.11H110.484L116.71 24.6ZM122.628 40V24.6H119.24V40H122.628ZM137.543 40V36.92H129.865V24.6H126.477V40H137.543ZM160.224 37.514L158.068 35.336C156.858 36.436 155.78 37.14 154.02 37.14C151.38 37.14 149.554 34.94 149.554 32.3V32.256C149.554 29.616 151.424 27.46 154.02 27.46C155.56 27.46 156.77 28.12 157.958 29.198L160.114 26.712C158.684 25.304 156.946 24.336 154.042 24.336C149.312 24.336 146.012 27.922 146.012 32.3V32.344C146.012 36.766 149.378 40.264 153.91 40.264C156.88 40.264 158.64 39.208 160.224 37.514ZM178.192 32.3V32.256C178.192 27.878 174.782 24.336 170.03 24.336C165.278 24.336 161.824 27.922 161.824 32.3V32.344C161.824 36.722 165.234 40.264 169.986 40.264C174.738 40.264 178.192 36.678 178.192 32.3ZM174.65 32.344C174.65 34.984 172.758 37.14 170.03 37.14C167.302 37.14 165.366 34.94 165.366 32.3V32.256C165.366 29.616 167.258 27.46 169.986 27.46C172.714 27.46 174.65 29.66 174.65 32.3V32.344ZM194.508 40L190.746 34.5C192.704 33.774 194.046 32.212 194.046 29.726V29.682C194.046 26.514 191.868 24.6 188.238 24.6H181.198V40H184.586V35.072H187.248L190.548 40H194.508ZM190.614 29.902C190.614 31.2 189.668 32.08 188.018 32.08H184.586V27.658H187.952C189.602 27.658 190.614 28.406 190.614 29.858V29.902ZM209.284 29.968V29.924C209.284 26.778 207.062 24.6 203.388 24.6H197.096V40H200.484V35.38H203.058C206.512 35.38 209.284 33.532 209.284 29.968ZM205.852 30.034C205.852 31.354 204.862 32.366 203.168 32.366H200.484V27.658H203.102C204.796 27.658 205.852 28.472 205.852 29.99V30.034Z" fill="#333333"/>
<defs>
<linearGradient id="paint0_linear_12_106" x1="64" y1="-5.76943e-06" x2="-13.2374" y2="30.7422" gradientUnits="userSpaceOnUse">
<stop/>
<stop offset="1" stop-opacity="0"/>
</linearGradient>
</defs>
</svg>
