<svg width="321" height="64" viewBox="0 0 321 64" fill="none" xmlns="http://www.w3.org/2000/svg">
<rect width="64" height="64" rx="32" fill="#222222"/>
<rect width="64" height="64" rx="32" fill="url(#paint0_linear_12_104)" fill-opacity="0.15"/>
<path d="M101.532 40V24.6H98.188V34.082L90.972 24.6H87.848V40H91.192V30.21L98.65 40H101.532ZM108.771 40V24.6H105.383V40H108.771ZM126.303 40V24.6H122.959V34.082L115.743 24.6H112.619V40H115.963V30.21L123.421 40H126.303ZM138.954 34.676V24.6H135.478V34.522C135.478 36.304 134.686 37.074 133.41 37.074C132.332 37.074 131.474 36.502 130.594 35.534L128.46 37.91C129.516 39.164 131.1 40.22 133.498 40.22C136.754 40.22 138.954 38.416 138.954 34.676ZM156.864 40L150.264 24.49H147.14L140.54 40H143.994L145.402 36.546H151.914L153.322 40H156.864ZM150.704 33.554H146.612L148.658 28.56L150.704 33.554ZM178.926 35.776V35.732C178.926 33.664 177.826 32.63 176.044 31.948C177.144 31.332 178.068 30.364 178.068 28.626V28.582C178.068 26.162 176.132 24.6 172.986 24.6H165.836V40H173.162C176.638 40 178.926 38.592 178.926 35.776ZM174.702 29.198C174.702 30.342 173.756 30.826 172.26 30.826H169.136V27.57H172.48C173.91 27.57 174.702 28.142 174.702 29.154V29.198ZM175.56 35.358C175.56 36.502 174.658 37.03 173.162 37.03H169.136V33.642H173.052C174.79 33.642 175.56 34.28 175.56 35.314V35.358ZM196.717 40L190.117 24.49H186.993L180.393 40H183.847L185.255 36.546H191.767L193.175 40H196.717ZM190.557 33.554H186.465L188.511 28.56L190.557 33.554ZM212.778 40V24.6H209.434V34.082L202.218 24.6H199.094V40H202.438V30.21L209.896 40H212.778ZM230.489 40L223.933 31.134L230.203 24.6H226.111L219.863 31.332V24.6H216.475V40H219.863V35.292L221.645 33.444L226.419 40H230.489Z" fill="#333333"/>
<path d="M19.5852 21.1465L17.6684 20.3948C16.6913 20.019 16.2403 18.929 16.6161 17.9519C16.9919 16.9747 18.0818 16.5237 19.059 16.8995L20.0362 17.2754L19.7731 16.4109C19.4724 15.4338 20.0362 14.3814 21.0509 14.0808C22.0281 13.7801 23.0805 14.3438 23.3811 15.3586L24.0576 17.6512C26.463 16.4485 29.169 15.7344 32.0253 15.7344C41.4212 15.7344 49.0507 23.3639 49.0507 32.7598C49.0507 42.1557 41.4212 49.7851 32.0253 49.7851C22.6295 49.7851 15 42.1557 15 32.7598C15 28.2873 16.7664 24.1907 19.5852 21.1465ZM44.0145 33.9249C44.0521 33.549 44.0897 33.1732 44.0897 32.7598C44.0897 29.8658 43.0749 27.235 41.3836 25.1679H22.7422C21.0509 27.235 20.0362 29.9034 20.0362 32.7598C20.0362 33.1356 20.0738 33.549 20.1114 33.9249H44.0145Z" fill="white"/>
<path d="M36.9488 32.1209C35.5166 32.1209 34.3555 30.9598 34.3555 29.5276C34.3555 28.0954 35.5166 26.9343 36.9488 26.9343C38.381 26.9343 39.5421 28.0954 39.5421 29.5276C39.5421 30.9598 38.381 32.1209 36.9488 32.1209Z" fill="white"/>
<path d="M27.1019 32.1209C25.6697 32.1209 24.5087 30.9598 24.5087 29.5276C24.5087 28.0954 25.6697 26.9343 27.1019 26.9343C28.5341 26.9343 29.6952 28.0954 29.6952 29.5276C29.6952 30.9598 28.5341 32.1209 27.1019 32.1209Z" fill="white"/>
<defs>
<linearGradient id="paint0_linear_12_104" x1="64" y1="-5.76943e-06" x2="-13.2374" y2="30.7422" gradientUnits="userSpaceOnUse">
<stop stop-color="white"/>
<stop offset="1" stop-color="white" stop-opacity="0"/>
</linearGradient>
</defs>
</svg>
